<svg width="180" height="61" viewBox="0 0 180 61" fill="none" xmlns="http://www.w3.org/2000/svg">
<path d="M28 56.3734C43.464 56.3734 56 43.8374 56 28.3734C56 12.9094 43.464 0.373413 28 0.373413C12.536 0.373413 0 12.9094 0 28.3734C0 43.8374 12.536 56.3734 28 56.3734Z" fill="#CCC4C2"/>
<path fill-rule="evenodd" clip-rule="evenodd" d="M55.7186 31.9763C54.3455 42.874 46.7208 51.814 36.5633 55.065L22.2312 40.4115L39.4836 14.5043L55.7186 31.9763Z" fill="#A9A5A6"/>
<path fill-rule="evenodd" clip-rule="evenodd" d="M39.8754 13.9181V28.623C39.8754 34.6452 34.5588 42.8681 28.0822 42.8681H28.0817C21.6052 42.8681 16.2886 34.6545 16.2886 28.623V13.9181H39.8754Z" fill="#CE451B"/>
<path fill-rule="evenodd" clip-rule="evenodd" d="M39.8754 13.9181V28.623C39.8754 34.6452 34.5588 42.8681 28.0823 42.8681V13.9181H39.8754Z" fill="#AF2F12"/>
<path fill-rule="evenodd" clip-rule="evenodd" d="M18.7192 22.2666H25.4155C23.7161 19.462 20.2459 19.6892 18.7192 22.2666Z" fill="#FEFEFE"/>
<path fill-rule="evenodd" clip-rule="evenodd" d="M30.8071 22.2666H37.5032C35.8038 19.462 32.3337 19.6892 30.8071 22.2666Z" fill="#FEFEFE"/>
<path fill-rule="evenodd" clip-rule="evenodd" d="M20.9978 31.9034C25.4544 34.0965 30.1762 34.0897 35.1657 31.9034C31.5701 37.7554 24.2277 37.2813 20.9978 31.9034Z" fill="#FEFEFE"/>
<path fill-rule="evenodd" clip-rule="evenodd" d="M100.481 44.5759L103.497 44.5647C104.05 44.5627 104.212 43.4315 104.866 42.0096C106.215 39.0778 110.697 28.3927 111.807 27.3186L111.81 44.5036L115.018 44.473L114.841 19.8757L111.904 19.8618C109.715 23.3658 105.596 34.9407 103.708 36.9865L103.691 19.8612L100.459 19.8725L100.481 44.5759Z" fill="#FEFEFE"/>
<path fill-rule="evenodd" clip-rule="evenodd" d="M175.768 33.1501C172.955 32.7074 168.016 31.5978 167.688 27.9147C167.237 22.8517 172.618 22.7863 175.77 22.7783L175.768 33.1501ZM179.043 19.8534C174.886 19.428 168.64 19.2067 165.987 23.035C164.664 24.9443 164.05 27.0849 164.742 29.4912C165.451 31.9581 166.664 32.6038 168.398 34.1198L164.481 44.5612L167.772 44.5678L171.269 35.2011C172.503 35.4235 175.009 35.7159 175.77 36.7124L175.771 44.5566L178.983 44.5205C178.982 41.1962 178.929 21.4988 179.043 19.8534Z" fill="#FEFEFE"/>
<path fill-rule="evenodd" clip-rule="evenodd" d="M151.601 44.5942L156.74 22.7948L159.782 22.7805L159.778 44.5571L162.987 44.5683L162.992 19.8671L154.24 19.8691L148.477 44.562L151.601 44.5942Z" fill="#FEFEFE"/>
<path fill-rule="evenodd" clip-rule="evenodd" d="M146.144 22.746L146.909 19.8639L132.473 19.8659L132.473 44.5247L146.936 44.5766C146.8 43.5516 146.599 42.2987 146.149 41.5425L135.695 41.541L135.685 31.0309L142.14 31.0396L142.694 28.0346H135.684L135.682 22.7821L146.144 22.746Z" fill="#FEFEFE"/>
<path fill-rule="evenodd" clip-rule="evenodd" d="M87.7151 22.7813C89.6601 22.7813 91.6626 22.5136 93.3985 23.5767C94.8315 24.4541 95.9445 25.9513 95.7749 27.9126C95.456 31.6061 90.5076 32.6487 87.7127 33.1532L87.7129 23.025L87.7151 22.7813ZM87.7137 36.7125C88.563 35.5805 93.7935 34.9518 95.4834 33.7787C101.746 29.4317 100.633 17.7455 84.501 19.8616L84.5018 44.5911L87.71 44.5786L87.7137 36.7125Z" fill="#FEFEFE"/>
<path fill-rule="evenodd" clip-rule="evenodd" d="M70.7797 24.7215C71.6979 23.6837 72.2413 22.8696 73.6658 22.5427C77.3261 21.7037 79.1513 25.5336 71.3904 28.9166C71.3447 29.6658 71.4058 29.8871 71.5849 30.6272L72.0601 31.938C78.5396 31.2412 81.305 35.5834 79.1672 39.2899C78.1274 41.0933 75.8806 41.9212 73.8604 41.8395C71.0258 41.7253 70.6008 40.4522 68.6329 39.2564L66.5518 41.4571C74.3137 49.4391 85.9331 42.3347 82.5112 33.9209C81.2827 30.9003 79.3243 30.5629 77.1095 29.2128C79.828 26.7568 81.8057 22.6477 77.8036 20.2051C75.006 18.4979 69.8557 19.6611 68.4323 22.8116L70.7797 24.7215Z" fill="#FEFEFE"/>
<path fill-rule="evenodd" clip-rule="evenodd" d="M130.952 19.7833L116.482 19.8615L116.481 22.7913L122.113 22.7803L122.113 44.5904L125.324 44.5685L125.326 22.7794L125.642 22.7855L130.349 22.7367L130.952 19.7833Z" fill="#FEFEFE"/>
<path fill-rule="evenodd" clip-rule="evenodd" d="M122.417 2.96879C129.239 0.710448 132.923 10.5482 125.897 12.7698C119.197 14.8886 114.85 5.47398 122.417 2.96879ZM115.897 6.99537L115.852 1.27114H114.116L114.115 14.4701H115.855L115.862 8.74758C117.802 8.47271 116.263 10.4042 118.801 12.6245C120.277 13.9166 121.997 14.5935 123.915 14.6342C133.778 14.8433 133.823 0.85056 123.873 1.08682C121.986 1.13154 120.401 1.7854 118.909 2.991C118.262 3.51443 117.799 4.25481 117.411 5.03187C116.68 6.49385 117.269 7.18781 115.897 6.99537Z" fill="#FEFEFE"/>
<path fill-rule="evenodd" clip-rule="evenodd" d="M146.663 2.93305C153.342 0.816614 157.212 10.4856 150.02 12.7771C143.372 14.8956 139.154 5.31251 146.663 2.93305ZM147.264 1.15633C137.539 2.46724 139.853 16.0091 149.542 14.5226C153.063 13.9827 156.401 10.6633 155.506 6.52326C154.669 2.65125 150.665 0.698038 147.264 1.15633Z" fill="#FEFEFE"/>
<path fill-rule="evenodd" clip-rule="evenodd" d="M168.961 2.93336C175.482 0.853811 179.539 10.2122 172.481 12.7203C165.837 15.0816 161.323 5.36931 168.961 2.93336ZM169.562 1.15864C159.909 2.45308 162.049 15.9356 171.834 14.5267C175.354 14.0199 178.689 10.6364 177.803 6.52416C176.967 2.64955 172.964 0.702364 169.562 1.15864Z" fill="#FEFEFE"/>
<path fill-rule="evenodd" clip-rule="evenodd" d="M138.503 1.27348L138.394 8.48601L133.783 8.48713L133.763 1.27318L132.134 1.27087L132.132 14.4701H133.873L133.873 10.1839L138.394 10.1848L138.393 14.469L140.073 14.4701L140.074 1.27117L138.503 1.27348Z" fill="#FEFEFE"/>
<path fill-rule="evenodd" clip-rule="evenodd" d="M88.8926 5.1905L90.1302 10.7885L87.6215 10.0492L88.8926 5.1905ZM84.8616 14.4782L86.4567 14.4794L87.2213 11.7965C89.0771 11.7307 90.1044 12.7581 91.2007 14.4531L92.762 14.4624L89.704 1.30404L87.997 1.27258L84.8616 14.4782Z" fill="#FEFEFE"/>
<path fill-rule="evenodd" clip-rule="evenodd" d="M101.452 8.27147L101.461 2.96856C103.168 2.4716 105.931 3.17158 105.893 5.42441C105.86 7.4339 103.033 8.45802 101.452 8.27147ZM99.7 2.24889L99.701 14.4702H101.442L101.453 10.2001C103.942 9.0764 107.973 9.12514 107.619 4.97365C107.265 0.823873 102.341 1.27173 99.7026 1.27121L99.7 2.24889Z" fill="#FEFEFE"/>
<path fill-rule="evenodd" clip-rule="evenodd" d="M83.7846 12.9632L77.7939 12.8865L77.698 7.2507L81.3008 7.26568L81.792 5.61044L77.7923 5.60358L77.8149 2.9146L83.5912 2.86526L83.9847 1.27403L76.0548 1.2677L76.0532 14.4702L83.7902 14.4465L83.7846 12.9632Z" fill="#FEFEFE"/>
<path fill-rule="evenodd" clip-rule="evenodd" d="M67.2837 2.86246L70.3211 2.87543L70.3811 14.4711L72.1194 14.4699L72.1612 2.88117L74.8123 2.86269L75.2025 1.28219L67.2712 1.27124L67.2837 2.86246Z" fill="#FEFEFE"/>
<path fill-rule="evenodd" clip-rule="evenodd" d="M90.933 2.86696L93.9126 2.86256L94.0328 14.4559L95.723 14.4516L95.7732 2.85652L98.4566 2.86286L98.8839 1.27484L90.9165 1.2688L90.933 2.86696Z" fill="#FEFEFE"/>
<path fill-rule="evenodd" clip-rule="evenodd" d="M156.457 1.51537L156.456 14.471L158.196 14.4695L158.239 2.86317H163.996L164.375 1.27344L156.458 1.26733L156.457 1.51537Z" fill="#FEFEFE"/>
<path fill-rule="evenodd" clip-rule="evenodd" d="M117.551 53.67L118.334 57.4847L116.747 56.981L117.551 53.67ZM115 59.9992L116.009 60L116.493 58.1717C117.668 58.1268 118.318 58.8269 119.012 59.9821L120 59.9883L118.065 51.0215L116.984 51L115 59.9992Z" fill="#FEFEFE"/>
<path fill-rule="evenodd" clip-rule="evenodd" d="M155.551 53.6699L156.334 57.4848L154.747 56.9811L155.551 53.6699ZM153 59.9993L154.009 60L154.493 58.1717C155.668 58.1269 156.318 58.827 157.012 59.9821L158 59.9884L156.065 51.0215L154.984 51L153 59.9993Z" fill="#FEFEFE"/>
<path d="M90.0206 52.6367H88.1185V59.4418H87V51.1459H90.0206V52.6367ZM96.6421 55.333C96.6421 56.5345 96.336 57.5509 95.7235 58.3844C95.1113 59.2155 94.356 59.6322 93.4581 59.6322C92.5601 59.6322 91.8048 59.2155 91.1926 58.3844C90.5801 57.5509 90.274 56.5345 90.274 55.333C90.274 54.1242 90.5801 53.1003 91.1926 52.2594C91.8048 51.4204 92.5601 51 93.4581 51C94.356 51 95.1113 51.4204 95.7235 52.2594C96.336 53.1003 96.6421 54.1242 96.6421 55.333ZM95.5235 55.2996C95.5235 54.5242 95.3263 53.8627 94.9319 53.3131C94.5369 52.7658 94.0458 52.4912 93.4581 52.4912C92.8647 52.4912 92.3723 52.764 91.9803 53.3076C91.5884 53.8534 91.3926 54.5164 91.3926 55.2996C91.3926 56.0898 91.5912 56.7607 91.9884 57.3135C92.3859 57.8649 92.8731 58.1414 93.45 58.1414C94.043 58.1414 94.5369 57.8631 94.9319 57.308C95.3263 56.7514 95.5235 56.0824 95.5235 55.2996ZM101.296 53.7354C101.296 54.4081 101.157 54.9651 100.879 55.406C100.504 56.0038 99.9214 56.3027 99.1323 56.3027H98.5606V59.4418H97.442V51.1459H99.1323C99.9702 51.1459 100.572 51.4785 100.936 52.1437C101.176 52.5846 101.296 53.1152 101.296 53.7354ZM100.177 53.7243C100.177 53.2833 100.055 52.9767 99.8097 52.8049C99.6519 52.6929 99.4558 52.6367 99.2219 52.6367H98.5606V54.8117H99.2219C99.5539 54.8117 99.7961 54.7184 99.9486 54.5316C100.101 54.3445 100.177 54.0755 100.177 53.7243ZM108.072 55.333C108.072 56.5345 107.766 57.5509 107.153 58.3844C106.541 59.2155 105.786 59.6322 104.888 59.6322C103.99 59.6322 103.235 59.2155 102.622 58.3844C102.01 57.5509 101.704 56.5345 101.704 55.333C101.704 54.1242 102.01 53.1003 102.622 52.2594C103.235 51.4204 103.99 51 104.888 51C105.786 51 106.541 51.4204 107.153 52.2594C107.766 53.1003 108.072 54.1242 108.072 55.333ZM106.953 55.2996C106.953 54.5242 106.756 53.8627 106.362 53.3131C105.967 52.7658 105.476 52.4912 104.888 52.4912C104.295 52.4912 103.802 52.764 103.41 53.3076C103.018 53.8534 102.822 54.5164 102.822 55.2996C102.822 56.0898 103.021 56.7607 103.418 57.3135C103.816 57.8649 104.303 58.1414 104.88 58.1414C105.473 58.1414 105.967 57.8631 106.362 57.308C106.756 56.7514 106.953 56.0824 106.953 55.2996ZM114.963 61H113.844V59.4418H109.484V61H108.366V57.9509H108.945L111.183 51.1459H112.162L114.399 57.9509H114.963V61ZM113.166 57.9509L111.672 53.2759L110.178 57.9509H113.166ZM127.845 59.4418H126.507L124.629 55.8096V59.4418H123.51V51.1459H124.629V54.7444L126.507 51.1459H127.845L125.568 55.2266L127.845 59.4418ZM133.658 51.1459L130.924 59.4418H129.699L130.409 57.334L128.09 51.1459H129.446L131.038 55.563L132.434 51.1459H133.658ZM138.729 59.4418H137.61V55.9663H135.406V59.4418H134.287V51.1459H135.406V54.4754H137.61V51.1459H138.729V59.4418ZM142.859 52.6367H140.957V59.4418H139.839V51.1459H142.859V52.6367ZM148.518 51.1459L145.782 59.4418H144.558L145.268 57.334L142.95 51.1459H144.305L145.897 55.563L147.293 51.1459H148.518ZM153 53.7354C153 54.4081 152.861 54.9651 152.583 55.406C152.208 56.0038 151.626 56.3027 150.836 56.3027H150.265V59.4418H149.146V51.1459H150.836C151.674 51.1459 152.276 51.4785 152.641 52.1437C152.88 52.5846 153 53.1152 153 53.7354ZM151.881 53.7243C151.881 53.2833 151.759 52.9767 151.514 52.8049C151.356 52.6929 151.16 52.6367 150.926 52.6367H150.265V54.8117H150.926C151.258 54.8117 151.5 54.7184 151.653 54.5316C151.805 54.3445 151.881 54.0755 151.881 53.7243Z" fill="#FEFEFE"/>
</svg>
