<svg width="27" height="27" viewBox="0 0 27 27" fill="none" xmlns="http://www.w3.org/2000/svg">
<path d="M26.9934 6.92293C26.9934 4.56661 26.0522 2.67037 24.1521 1.27149C23.0177 0.435847 21.6421 -0.00777197 20.2331 0.00771753C15.7434 0.0018937 11.2536 -0.00625966 6.7638 0.00771753C3.78265 0.0193652 1.25001 1.88765 0.316871 4.71104C0.1596 5.18743 0.103682 5.68479 0 6.17282V20.8279C0.116497 21.4639 0.213189 22.1091 0.471812 22.7078C1.46087 25.0176 3.1757 26.4351 5.65475 26.901L6.1685 27H20.8238C21.4505 26.8777 22.0866 26.7892 22.6807 26.5341C25.0107 25.5475 26.4261 23.8272 26.8956 21.3357C26.9693 20.9022 27.0024 20.4627 26.9946 20.0231C26.9946 15.6552 26.9942 11.2885 26.9934 6.92293ZM20.4032 8.18088C20.2518 9.75797 19.0251 17.7622 18.7641 18.5659C18.5404 19.252 18.304 19.8472 17.8554 19.8472C17.3404 19.8331 16.8428 19.6575 16.433 19.3452C15.9496 18.9957 12.7401 16.8479 12.2939 16.5672C11.9036 16.3214 11.4901 15.7064 12.0726 15.1124C12.5525 14.6232 16.1907 11.094 16.4994 10.783C16.8081 10.472 16.5076 10.0736 16.1278 10.3846C15.748 10.6956 10.4474 14.2412 9.98726 14.5265C9.41338 14.8462 8.73863 14.9333 8.10234 14.77C7.40336 14.5766 6.20345 14.2144 5.72931 14.0455C5.2738 13.8824 5.10954 13.7263 5.10954 13.448C5.10954 13.0519 5.66756 12.7782 6.2582 12.5278C6.88961 12.2576 17.6597 7.68352 18.5032 7.37719C19.1171 7.15589 19.6472 7.06969 20.0048 7.24091C20.3007 7.38534 20.4522 7.70333 20.4032 8.18088Z" fill="white"/>
</svg>
