<svg width="27" height="27" viewBox="0 0 27 27" fill="none" xmlns="http://www.w3.org/2000/svg">
<g clip-path="url(#clip0_38_331)">
<path d="M26.9984 6.92318C26.9967 4.56575 26.0565 2.66928 24.1564 1.27076C22.996 0.417022 21.6745 0.0094621 20.2371 0.00699703C15.7465 0.000423484 11.2551 -0.00779344 6.76459 0.00864041C3.78294 0.0201441 1.25002 1.8895 0.317231 4.71283C0.159437 5.18941 0.103552 5.68654 0 6.17462V20.8312C0.120811 21.4671 0.213679 22.1097 0.471738 22.7112C1.46124 25.021 3.17642 26.4343 5.65592 26.9018C5.82769 26.9339 5.99863 26.9676 6.16957 27.0004H20.8288C21.4558 26.878 22.0911 26.7892 22.6861 26.537C25.0136 25.5501 26.4321 23.8295 26.9014 21.3373C26.9827 20.9035 27 20.4655 27 20.0251C27 15.6578 27.0025 11.2913 26.9992 6.92401L26.9984 6.92318ZM7.62834 8.9388C8.24637 8.94373 8.46498 9.08917 8.6951 9.65613C9.14136 10.7556 9.72076 11.7794 10.4382 12.7252C10.5697 12.8985 10.7119 13.0612 10.8919 13.1853C11.1697 13.3776 11.3694 13.3135 11.4688 12.9938C11.5658 12.6833 11.6233 12.362 11.6291 12.0374C11.6406 11.4162 11.6422 10.795 11.5831 10.1746C11.5403 9.73009 11.3233 9.44167 10.8927 9.30774C10.5656 9.20667 10.5385 9.05712 10.7941 8.82458C10.9601 8.67339 11.1598 8.59451 11.3792 8.56986C12.3145 8.46468 13.2514 8.5107 14.185 8.57972C14.7751 8.62327 15.0151 8.90675 15.0175 9.53288C15.02 10.3611 14.9888 11.1894 14.9699 12.0177C14.9633 12.2987 14.9921 12.5756 15.052 12.8492C15.0899 13.0193 15.1449 13.1902 15.3389 13.2412C15.5221 13.2897 15.6462 13.1689 15.7588 13.0497C16.6472 12.1072 17.3006 11.0144 17.7954 9.82294C18.0392 9.23461 18.4786 8.94017 19.1136 8.93962C19.8615 8.93962 20.6093 8.93962 21.3564 8.93962C21.5093 8.93962 21.6621 8.94208 21.8109 8.99139C22.0804 9.08095 22.1782 9.25104 22.1141 9.53206C22.0081 9.99632 21.7944 10.4137 21.5224 10.7975C20.9644 11.583 20.3891 12.357 19.8245 13.1376C19.7029 13.3053 19.5829 13.4754 19.4826 13.6561C19.2566 14.0621 19.2878 14.2962 19.6116 14.6274C19.9453 14.9692 20.2855 15.3036 20.6258 15.6381C21.1025 16.1072 21.5364 16.6109 21.9038 17.1705C21.958 17.2535 22.0122 17.3373 22.0541 17.4261C22.2736 17.8928 22.0541 18.3012 21.5421 18.38C21.0408 18.4573 20.5354 18.4318 20.0316 18.4236C19.6897 18.4178 19.3478 18.3932 19.0059 18.3899C18.4537 18.3858 17.986 18.1878 17.603 17.7942C17.1888 17.3685 16.787 16.9298 16.3686 16.5074C16.155 16.2921 15.9306 16.0349 15.5813 16.1352C15.2329 16.2354 15.2238 16.5805 15.1556 16.8624C15.0907 17.1327 15.0562 17.4113 15.0118 17.6865C14.9436 18.1122 14.7702 18.2971 14.3477 18.3373C12.4411 18.5197 10.7645 17.9889 9.35504 16.6808C8.19048 15.6003 7.37439 14.2601 6.58953 12.9002C6.01342 11.901 5.52771 10.8542 5.04529 9.8065C5.0116 9.73255 4.97955 9.6586 4.9516 9.58218C4.79381 9.14833 4.93106 8.94291 5.38471 8.93058C5.43895 8.92894 5.4932 8.92812 5.54662 8.92812C5.88932 8.92812 6.23121 8.92812 6.57392 8.92812L7.62752 8.9388H7.62834Z" fill="white"/>
</g>
<defs>
<clipPath id="clip0_38_331">
<rect width="27" height="27" fill="white"/>
</clipPath>
</defs>
</svg>
