<svg width="9" height="7" viewBox="0 0 9 7" fill="none" xmlns="http://www.w3.org/2000/svg">
<g clip-path="url(#clip0_38_341)">
<path d="M9.00008 6.29373C8.98787 6.32994 8.9752 6.36616 8.96347 6.40238C8.92687 6.51672 8.91654 6.52008 8.84075 6.43678C8.68541 6.26553 8.53039 6.0941 8.37567 5.9225C7.70504 5.17832 7.03457 4.43397 6.36425 3.68945C6.32718 3.64832 6.29198 3.60434 6.25233 3.56657C6.20258 3.51975 6.2054 3.48302 6.25233 3.43283C6.47501 3.19017 6.69558 2.94467 6.91615 2.69969C7.55377 1.99259 8.19124 1.28489 8.82855 0.576588C8.91983 0.47518 8.92687 0.477509 8.96934 0.615651C8.97872 0.645919 8.98999 0.675927 9.00031 0.705935L9.00008 6.29373Z" fill="#FEFEFE"/>
<path d="M4.50206 0.000833646C5.72537 0.000833646 6.94868 0.000833646 8.17198 0.000833646C8.27166 -0.00281504 8.37118 0.0123202 8.46624 0.0455876C8.54649 0.0763722 8.55071 0.0926697 8.4897 0.160189C8.15102 0.535985 7.81211 0.911436 7.47296 1.28654C6.57191 2.2851 5.67124 3.28375 4.77097 4.28248C4.59295 4.48012 4.41555 4.48098 4.23878 4.28506C3.00296 2.91588 1.76768 1.54644 0.532953 0.176746C0.451765 0.0869788 0.45505 0.077407 0.563693 0.0383442C0.64783 0.0106067 0.735429 -0.00222904 0.823217 0.000316148C2.0495 0.00117846 3.27578 0.00135103 4.50206 0.000833646Z" fill="#FEFEFE"/>
<path d="M4.50523 6.99864C3.28208 6.99864 2.05885 6.99864 0.835543 6.99864C0.735999 7.00127 0.636743 6.9858 0.54176 6.95285C0.461275 6.9231 0.457521 6.90577 0.518295 6.83851C0.848683 6.47203 1.17938 6.1058 1.5104 5.73984C2.03679 5.15571 2.56296 4.57123 3.08889 3.98641C3.17148 3.89457 3.17195 3.89483 3.25197 3.9833C3.4691 4.22355 3.68615 4.46379 3.90312 4.70403C4.25181 5.08767 4.75373 5.08922 5.10195 4.70687C5.32604 4.46059 5.54966 4.21406 5.77094 3.96442C5.81787 3.91087 5.84884 3.90699 5.89859 3.96209C6.76241 4.92392 7.62741 5.88436 8.49358 6.84343C8.54825 6.90396 8.53511 6.9319 8.47011 6.95389C8.38067 6.98448 8.28758 7.00017 8.19393 7.00045C6.96405 6.99925 5.73449 6.99864 4.50523 6.99864Z" fill="#FEFEFE"/>
<path d="M0.000796986 3.49407C0.000796986 2.62796 0.000796986 1.76194 0.000796986 0.896004C-0.000376817 0.792583 0.0144625 0.689698 0.0446764 0.591779C0.0779967 0.485456 0.0932489 0.481058 0.164113 0.559184C0.411434 0.833744 0.659224 1.10813 0.907484 1.38235C1.51617 2.05806 2.12477 2.73394 2.7333 3.40999C2.81425 3.49976 2.81425 3.50002 2.7333 3.59108C2.2022 4.17917 1.67119 4.7671 1.14026 5.35485C0.814093 5.71702 0.488478 6.0792 0.163409 6.44137C0.0930143 6.51898 0.0833933 6.51613 0.0486651 6.4155C0.0157199 6.31522 -0.000188858 6.20911 0.00173507 6.10248C0.00204794 5.23292 0.00173559 4.36345 0.000796986 3.49407Z" fill="#FEFEFE"/>
</g>
<defs>
<clipPath id="clip0_38_341">
<rect width="9" height="7" fill="white"/>
</clipPath>
</defs>
</svg>
