<svg width="180" height="59" viewBox="0 0 180 59" fill="none" xmlns="http://www.w3.org/2000/svg">
<path d="M28 56C43.464 56 56 43.464 56 28C56 12.536 43.464 0 28 0C12.536 0 0 12.536 0 28C0 43.464 12.536 56 28 56Z" fill="#CCC4C2"/>
<path fill-rule="evenodd" clip-rule="evenodd" d="M55.7186 31.6029C54.3455 42.5006 46.7208 51.4406 36.5633 54.6916L22.2312 40.0381L39.4836 14.1309L55.7186 31.6029Z" fill="#A9A5A6"/>
<path fill-rule="evenodd" clip-rule="evenodd" d="M39.8754 13.5447V28.2496C39.8754 34.2718 34.5588 42.4946 28.0822 42.4946H28.0817C21.6052 42.4946 16.2886 34.2811 16.2886 28.2496V13.5447H39.8754Z" fill="#837F7E"/>
<path fill-rule="evenodd" clip-rule="evenodd" d="M39.8754 13.5447V28.2496C39.8754 34.2718 34.5588 42.4946 28.0823 42.4946V13.5447H39.8754Z" fill="#505050"/>
<path fill-rule="evenodd" clip-rule="evenodd" d="M18.7192 21.8932H25.4155C23.7161 19.0886 20.2459 19.3158 18.7192 21.8932Z" fill="#FEFEFE"/>
<path fill-rule="evenodd" clip-rule="evenodd" d="M30.8071 21.8932H37.5032C35.8038 19.0886 32.3337 19.3158 30.8071 21.8932Z" fill="#FEFEFE"/>
<path fill-rule="evenodd" clip-rule="evenodd" d="M20.9978 31.53C25.4544 33.723 30.1762 33.7163 35.1657 31.53C31.5701 37.3819 24.2277 36.9079 20.9978 31.53Z" fill="#FEFEFE"/>
<path fill-rule="evenodd" clip-rule="evenodd" d="M100.481 46.2025L103.497 46.1913C104.05 46.1892 104.212 45.0581 104.866 43.6362C106.215 40.7044 110.697 30.0193 111.807 28.9452L111.81 46.1301L115.018 46.0996L114.841 21.5022L111.904 21.4884C109.715 24.9923 105.596 36.5673 103.708 38.6131L103.691 21.4878L100.459 21.499L100.481 46.2025Z" fill="#FEFEFE"/>
<path fill-rule="evenodd" clip-rule="evenodd" d="M175.768 34.7769C172.955 34.3341 168.016 33.2245 167.688 29.5415C167.237 24.4785 172.618 24.413 175.77 24.405L175.768 34.7769ZM179.043 21.4801C174.886 21.0547 168.64 20.8334 165.987 24.6617C164.664 26.571 164.05 28.7116 164.742 31.1179C165.451 33.5848 166.664 34.2305 168.398 35.7465L164.481 46.1879L167.772 46.1945L171.269 36.8278C172.503 37.0502 175.009 37.3426 175.77 38.3391L175.771 46.1833L178.983 46.1472C178.982 42.8229 178.929 23.1255 179.043 21.4801Z" fill="#FEFEFE"/>
<path fill-rule="evenodd" clip-rule="evenodd" d="M151.601 46.2208L156.74 24.4214L159.782 24.407L159.778 46.1836L162.987 46.1949L162.992 21.4937L154.24 21.4957L148.477 46.1886L151.601 46.2208Z" fill="#FEFEFE"/>
<path fill-rule="evenodd" clip-rule="evenodd" d="M146.144 24.3726L146.909 21.4905L132.473 21.4925L132.473 46.1513L146.936 46.2032C146.8 45.1782 146.599 43.9252 146.149 43.1691L135.695 43.1676L135.685 32.6575L142.14 32.6662L142.694 29.6612H135.684L135.682 24.4087L146.144 24.3726Z" fill="#FEFEFE"/>
<path fill-rule="evenodd" clip-rule="evenodd" d="M87.7151 24.4078C89.6601 24.4078 91.6626 24.1402 93.3985 25.2033C94.8315 26.0807 95.9445 27.5779 95.7749 29.5392C95.456 33.2327 90.5076 34.2753 87.7127 34.7798L87.7129 24.6515L87.7151 24.4078ZM87.7137 38.3391C88.563 37.2071 93.7935 36.5784 95.4834 35.4053C101.746 31.0583 100.633 19.372 84.501 21.4882L84.5018 46.2177L87.71 46.2052L87.7137 38.3391Z" fill="#FEFEFE"/>
<path fill-rule="evenodd" clip-rule="evenodd" d="M70.7797 26.3481C71.6979 25.3103 72.2413 24.4961 73.6658 24.1693C77.3261 23.3303 79.1513 27.1602 71.3904 30.5432C71.3447 31.2924 71.4058 31.5137 71.5849 32.2538L72.0601 33.5646C78.5396 32.8678 81.305 37.21 79.1672 40.9164C78.1274 42.7199 75.8806 43.5477 73.8604 43.4661C71.0258 43.3519 70.6008 42.0788 68.6329 40.883L66.5518 43.0836C74.3137 51.0657 85.9331 43.9613 82.5112 35.5475C81.2827 32.5269 79.3243 32.1895 77.1095 30.8393C79.828 28.3834 81.8057 24.2743 77.8036 21.8317C75.006 20.1245 69.8557 21.2877 68.4323 24.4382L70.7797 26.3481Z" fill="#FEFEFE"/>
<path fill-rule="evenodd" clip-rule="evenodd" d="M130.952 21.4099L116.482 21.4881L116.481 24.4179L122.113 24.4069L122.113 46.217L125.324 46.1951L125.326 24.406L125.642 24.4121L130.349 24.3633L130.952 21.4099Z" fill="#FEFEFE"/>
<path fill-rule="evenodd" clip-rule="evenodd" d="M122.417 4.59538C129.239 2.33703 132.923 12.1747 125.897 14.3964C119.197 16.5152 114.85 7.10057 122.417 4.59538ZM115.897 8.62196L115.852 2.89773H114.116L114.115 16.0967H115.855L115.862 10.3742C117.802 10.0993 116.263 12.0308 118.801 14.2511C120.277 15.5432 121.997 16.2201 123.915 16.2608C133.778 16.4699 133.823 2.47715 123.873 2.71341C121.986 2.75813 120.401 3.41198 118.909 4.61759C118.262 5.14101 117.799 5.8814 117.411 6.65845C116.68 8.12044 117.269 8.81439 115.897 8.62196Z" fill="#FEFEFE"/>
<path fill-rule="evenodd" clip-rule="evenodd" d="M146.663 4.55976C153.342 2.44332 157.212 12.1123 150.02 14.4038C143.372 16.5223 139.154 6.93922 146.663 4.55976ZM147.264 2.78303C137.539 4.09395 139.853 17.6358 149.542 16.1493C153.063 15.6094 156.401 12.29 155.506 8.14997C154.669 4.27796 150.665 2.32475 147.264 2.78303Z" fill="#FEFEFE"/>
<path fill-rule="evenodd" clip-rule="evenodd" d="M168.961 4.55982C175.482 2.48028 179.539 11.8387 172.481 14.3468C165.837 16.7081 161.323 6.99578 168.961 4.55982ZM169.562 2.7851C159.909 4.07955 162.049 17.5621 171.834 16.1532C175.354 15.6464 178.689 12.2629 177.803 8.15062C176.967 4.27601 172.964 2.32883 169.562 2.7851Z" fill="#FEFEFE"/>
<path fill-rule="evenodd" clip-rule="evenodd" d="M138.503 2.90007L138.394 10.1126L133.783 10.1137L133.763 2.89977L132.134 2.89746L132.132 16.0967H133.873L133.873 11.8105L138.394 11.8114L138.393 16.0956L140.073 16.0967L140.074 2.89776L138.503 2.90007Z" fill="#FEFEFE"/>
<path fill-rule="evenodd" clip-rule="evenodd" d="M88.8926 6.81709L90.1302 12.4151L87.6215 11.6758L88.8926 6.81709ZM84.8616 16.1048L86.4567 16.106L87.2213 13.4231C89.0771 13.3573 90.1044 14.3847 91.2007 16.0797L92.762 16.089L89.704 2.93063L87.997 2.89917L84.8616 16.1048Z" fill="#FEFEFE"/>
<path fill-rule="evenodd" clip-rule="evenodd" d="M101.452 9.89794L101.461 4.59503C103.168 4.09806 105.931 4.79805 105.893 7.05088C105.86 9.06037 103.033 10.0845 101.452 9.89794ZM99.7 3.87536L99.701 16.0966H101.442L101.453 11.8266C103.942 10.7029 107.973 10.7516 107.619 6.60012C107.265 2.45034 102.341 2.89819 99.7026 2.89767L99.7 3.87536Z" fill="#FEFEFE"/>
<path fill-rule="evenodd" clip-rule="evenodd" d="M83.7846 14.5897L77.7939 14.5131L77.698 8.87729L81.3008 8.89227L81.792 7.23702L77.7923 7.23017L77.8149 4.54118L83.5912 4.49184L83.9847 2.90062L76.0548 2.89429L76.0532 16.0967L83.7902 16.0731L83.7846 14.5897Z" fill="#FEFEFE"/>
<path fill-rule="evenodd" clip-rule="evenodd" d="M67.2837 4.48893L70.3211 4.5019L70.3811 16.0976L72.1194 16.0964L72.1612 4.50763L74.8123 4.48915L75.2025 2.90866L67.2712 2.89771L67.2837 4.48893Z" fill="#FEFEFE"/>
<path fill-rule="evenodd" clip-rule="evenodd" d="M90.933 4.49367L93.9126 4.48927L94.0328 16.0826L95.723 16.0783L95.7732 4.48323L98.4566 4.48957L98.8839 2.90155L90.9165 2.89551L90.933 4.49367Z" fill="#FEFEFE"/>
<path fill-rule="evenodd" clip-rule="evenodd" d="M156.457 3.14207L156.456 16.0977L158.196 16.0962L158.239 4.48988H163.996L164.375 2.90015L156.458 2.89404L156.457 3.14207Z" fill="#FEFEFE"/>
<path fill-rule="evenodd" clip-rule="evenodd" d="M118.825 52.8779L119.423 55.5798L118.212 55.223L118.825 52.8779ZM116.88 57.3607L117.649 57.3613L118.019 56.0663C118.914 56.0345 119.41 56.5304 119.939 57.3486L120.693 57.353L119.217 51.002L118.393 50.9868L116.88 57.3607Z" fill="#FEFEFE"/>
<path fill-rule="evenodd" clip-rule="evenodd" d="M147.162 52.9542L147.76 55.6562L146.549 55.2994L147.162 52.9542ZM145.217 57.4371L145.987 57.4376L146.356 56.1427C147.251 56.1109 147.747 56.6068 148.276 57.4249L149.03 57.4294L147.554 51.0784L146.73 51.0632L145.217 57.4371Z" fill="#FEFEFE"/>
<path d="M97.4966 52.1435H96.0482V57.4187H95.1965V50.9878H97.4966V52.1435ZM102.539 54.2337C102.539 55.165 102.306 55.953 101.839 56.5991C101.373 57.2434 100.798 57.5664 100.114 57.5664C99.4303 57.5664 98.8552 57.2434 98.389 56.5991C97.9226 55.953 97.6895 55.165 97.6895 54.2337C97.6895 53.2966 97.9226 52.5029 98.389 51.851C98.8552 51.2007 99.4303 50.8748 100.114 50.8748C100.798 50.8748 101.373 51.2007 101.839 51.851C102.306 52.5029 102.539 53.2966 102.539 54.2337ZM101.687 54.2077C101.687 53.6067 101.537 53.0939 101.236 52.6679C100.936 52.2436 100.562 52.0307 100.114 52.0307C99.6623 52.0307 99.2873 52.2422 98.9888 52.6636C98.6904 53.0867 98.5413 53.6006 98.5413 54.2077C98.5413 54.8203 98.6925 55.3404 98.995 55.7689C99.2977 56.1964 99.6687 56.4107 100.108 56.4107C100.559 56.4107 100.936 56.195 101.236 55.7646C101.537 55.3332 101.687 54.8146 101.687 54.2077ZM106.082 52.9952C106.082 53.5167 105.976 53.9485 105.765 54.2903C105.479 54.7537 105.036 54.9853 104.435 54.9853H103.999V57.4187H103.148V50.9878H104.435C105.073 50.9878 105.531 51.2457 105.808 51.7614C105.991 52.1032 106.082 52.5144 106.082 52.9952ZM105.23 52.9866C105.23 52.6448 105.137 52.4071 104.951 52.2739C104.83 52.1871 104.681 52.1435 104.503 52.1435H103.999V53.8296H104.503C104.756 53.8296 104.94 53.7572 105.056 53.6124C105.173 53.4674 105.23 53.2588 105.23 52.9866ZM111.242 54.2337C111.242 55.165 111.009 55.953 110.542 56.5991C110.076 57.2434 109.501 57.5664 108.817 57.5664C108.134 57.5664 107.558 57.2434 107.092 56.5991C106.626 55.953 106.393 55.165 106.393 54.2337C106.393 53.2966 106.626 52.5029 107.092 51.851C107.558 51.2007 108.134 50.8748 108.817 50.8748C109.501 50.8748 110.076 51.2007 110.542 51.851C111.009 52.5029 111.242 53.2966 111.242 54.2337ZM110.39 54.2077C110.39 53.6067 110.24 53.0939 109.94 52.6679C109.639 52.2436 109.265 52.0307 108.817 52.0307C108.366 52.0307 107.991 52.2422 107.692 52.6636C107.394 53.0867 107.245 53.6006 107.245 54.2077C107.245 54.8203 107.396 55.3404 107.698 55.7689C108.001 56.1964 108.372 56.4107 108.811 56.4107C109.263 56.4107 109.639 56.195 109.94 55.7646C110.24 55.3332 110.39 54.8146 110.39 54.2077ZM116.489 58.6267H115.637V57.4187H112.317V58.6267H111.466V56.263H111.907L113.611 50.9878H114.357L116.06 56.263H116.489V58.6267ZM115.121 56.263L113.983 52.639L112.846 56.263H115.121ZM126.299 57.4187H125.279L123.849 54.6031V57.4187H122.998V50.9878H123.849V53.7774L125.279 50.9878H126.299L124.564 54.1512L126.299 57.4187ZM130.725 50.9878L128.643 57.4187H127.71L128.251 55.7848L126.485 50.9878H127.517L128.729 54.412L129.792 50.9878H130.725ZM134.586 57.4187H133.734V54.7246H132.055V57.4187H131.204V50.9878H132.055V53.5689H133.734V50.9878H134.586V57.4187ZM137.731 52.1435H136.283V57.4187H135.431V50.9878H137.731V52.1435ZM142.04 50.9878L139.957 57.4187H139.024L139.565 55.7848L137.8 50.9878H138.832L140.044 54.412L141.107 50.9878H142.04ZM145.453 52.9952C145.453 53.5167 145.347 53.9485 145.135 54.2903C144.85 54.7537 144.406 54.9853 143.805 54.9853H143.37V57.4187H142.518V50.9878H143.805C144.443 50.9878 144.901 51.2457 145.179 51.7614C145.361 52.1032 145.453 52.5144 145.453 52.9952ZM144.601 52.9866C144.601 52.6448 144.508 52.4071 144.321 52.2739C144.201 52.1871 144.052 52.1435 143.873 52.1435H143.37V53.8296H143.873C144.126 53.8296 144.311 53.7572 144.427 53.6124C144.543 53.4674 144.601 53.2588 144.601 52.9866Z" fill="#FEFEFE"/>
</svg>
