<svg width="8" height="10" viewBox="0 0 8 10" fill="none" xmlns="http://www.w3.org/2000/svg">
<g clip-path="url(#clip0_38_338)">
<path d="M-7.43866e-05 3.94931C-7.43866e-05 4.99435 0.24983 5.80576 0.650788 6.57262C1.21779 7.66107 2.00277 8.56731 2.89521 9.38158C3.03765 9.51153 3.18038 9.64205 3.33171 9.76029C3.7285 10.0705 4.26941 10.0865 4.65593 9.76657C5.79438 8.82407 6.77928 7.7419 7.44236 6.38526C7.81472 5.62326 8.02908 4.81841 7.9977 3.95759C7.96272 3.02422 7.65506 2.19596 7.07417 1.48051C6.43108 0.688519 5.60945 0.192989 4.61705 0.0498996C3.11318 -0.167163 1.85727 0.335507 0.885699 1.53763C0.285095 2.27879 0.00520134 3.14932 -7.43866e-05 3.94931ZM7.09194 4.10154C7.09198 4.35444 7.06583 4.60663 7.01391 4.85383C6.86814 5.559 6.55825 6.18819 6.16674 6.77883C5.61001 7.61852 4.92027 8.3314 4.16472 8.9803C4.03783 9.0894 3.95314 9.08254 3.81486 8.9643C3.33109 8.55398 2.88018 8.10432 2.46648 7.61966C1.95196 7.01188 1.50657 6.3567 1.21113 5.60441C0.933457 4.89553 0.818779 4.16666 0.984272 3.40922C1.15608 2.63126 1.60583 1.9481 2.24435 1.49521C2.88288 1.04232 3.66355 0.852765 4.43157 0.964131C5.94405 1.1772 7.09 2.52298 7.09194 4.10154Z" fill="#FEFEFE"/>
<path d="M3.99593 2.28052C3.01658 2.28052 2.21327 3.10221 2.21133 4.10556C2.20911 5.11775 3.01658 5.94944 4.00398 5.9483C4.98277 5.9483 5.78857 5.11632 5.78857 4.10813C5.78857 3.09993 4.98249 2.27881 3.99593 2.28052ZM4.87031 4.10327C4.87119 4.28043 4.82095 4.45388 4.72596 4.60166C4.63097 4.74944 4.49549 4.86491 4.33667 4.93347C4.17784 5.00202 4.00282 5.02057 3.83374 4.98677C3.66467 4.95297 3.50914 4.86834 3.38685 4.74359C3.26455 4.61884 3.18098 4.45957 3.14672 4.28595C3.11246 4.11233 3.12904 3.93216 3.19437 3.76823C3.25969 3.60431 3.37083 3.464 3.51371 3.36507C3.65659 3.26614 3.8248 3.21303 3.99704 3.21246C4.22738 3.21253 4.44837 3.30617 4.61192 3.473C4.77547 3.63983 4.86834 3.86636 4.87031 4.10327Z" fill="#FEFEFE"/>
</g>
<defs>
<clipPath id="clip0_38_338">
<rect width="8" height="10" fill="white" transform="matrix(-1 0 0 1 8 0)"/>
</clipPath>
</defs>
</svg>
