<svg width="32" height="33" viewBox="0 0 32 33" fill="none" xmlns="http://www.w3.org/2000/svg">
<path d="M16 0C7.17091 0 0 7.22828 0 16.128C0 25.0277 7.17091 32.256 16 32.256C24.8291 32.256 32 25.0277 32 16.128C32 7.23194 24.8291 0 16 0ZM16 1.46618C24.0436 1.46618 30.5455 8.02001 30.5455 16.128C30.5455 24.236 24.0436 30.7898 16 30.7898C7.95636 30.7898 1.45455 24.236 1.45455 16.128C1.45455 8.02368 7.95636 1.46618 16 1.46618ZM15.9418 10.2633C15.76 10.2779 15.5891 10.3586 15.4655 10.4905L7.46546 19.2876C7.19273 19.5845 7.21455 20.05 7.50909 20.325C7.80364 20.5962 8.26182 20.5779 8.53455 20.2846L16 12.074L23.4655 20.2883C23.7382 20.5852 24.2 20.5999 24.4945 20.325C24.7855 20.05 24.8036 19.5882 24.5345 19.2913L16.5345 10.4942C16.3818 10.3293 16.1636 10.2449 15.9418 10.2633Z" fill="#FEFEFE"/>
</svg>
