<svg width="10" height="10" viewBox="0 0 10 10" fill="none" xmlns="http://www.w3.org/2000/svg">
<g clip-path="url(#clip0_38_336)">
<path d="M6.99736 9.99991C6.29285 10.0035 5.65759 9.79165 5.07822 9.39388C3.59882 8.37768 2.29265 7.12959 1.20991 5.69758C0.967341 5.37865 0.71645 5.06477 0.509851 4.72114C-0.101624 3.70424 -0.14889 2.64242 0.291955 1.55204C0.474167 1.1075 0.745278 0.704955 1.08863 0.369125C1.57584 -0.115523 2.32555 -0.125341 2.8196 0.353952C3.19515 0.717513 3.56603 1.08643 3.93226 1.4607C4.43762 1.97778 4.45069 2.65462 3.97626 3.20056C3.84011 3.35705 3.69743 3.50818 3.55771 3.662C3.34665 3.89435 3.33625 4.07584 3.49826 4.34628C4.02836 5.23302 4.77419 5.97098 5.66621 6.49134C5.90105 6.63028 6.10141 6.61957 6.30801 6.43779C6.49469 6.27357 6.67424 6.10131 6.86597 5.94362C7.34338 5.55061 8.03601 5.564 8.48429 5.98825C8.89352 6.37561 9.29295 6.77339 9.68256 7.18157C10.138 7.66117 10.0987 8.43113 9.59963 8.91786C8.98548 9.51616 8.25361 9.87823 7.39748 9.98028C7.26342 9.99515 7.13084 9.99575 6.99736 9.99991ZM6.98399 9.25613C7.80801 9.24155 8.51223 8.93839 9.10289 8.36687C9.32198 8.15474 9.32614 7.86258 9.11062 7.6445C8.75589 7.2857 8.39749 6.93067 8.03542 6.57941C7.78423 6.33575 7.52739 6.33485 7.2658 6.56543C7.09873 6.71269 6.93524 6.86294 6.76907 7.01169C6.36003 7.37615 5.78393 7.4184 5.31247 7.13903C4.29374 6.53419 3.47358 5.73328 2.85973 4.71728C2.54047 4.18889 2.58387 3.62957 3.0042 3.17408C3.15284 3.01342 3.30147 2.85187 3.44534 2.68764C3.62935 2.47938 3.62816 2.2021 3.43286 2.00336C3.06366 1.6279 2.69059 1.25601 2.31366 0.88769C2.09873 0.677646 1.81336 0.685977 1.59873 0.898104C1.47341 1.01969 1.36167 1.15456 1.2655 1.30034C0.632621 2.28154 0.515201 3.30736 1.13797 4.32069C1.72953 5.28314 2.47061 6.1382 3.26907 6.9388C3.94528 7.61164 4.67994 8.22295 5.46437 8.76553C5.92186 9.08506 6.42245 9.2594 6.98399 9.25673V9.25613Z" fill="#FEFEFE"/>
</g>
<defs>
<clipPath id="clip0_38_336">
<rect width="10" height="10" fill="white"/>
</clipPath>
</defs>
</svg>
